<svg xmlns="http://www.w3.org/2000/svg" xmlns:xlink="http://www.w3.org/1999/xlink" width="500" zoomAndPan="magnify" viewBox="0 0 375 374.999991" height="500" preserveAspectRatio="xMidYMid meet" version="1.0"><defs><g/><clipPath id="922bce372f"><path d="M 178 64.003906 L 230.984375 64.003906 L 230.984375 116.503906 L 178 116.503906 Z M 178 64.003906 " clip-rule="nonzero"/></clipPath></defs><g fill="#ff7b2a" fill-opacity="1"><g transform="translate(219.386841, 200.752318)"><g><path d="M 64.609375 -70.109375 L 69.390625 -65.4375 L 69.15625 -3.34375 L 63.171875 -0.125 L 44.390625 -0.484375 L 44.390625 -48.578125 L 27.640625 -48.09375 L 28 -1.921875 L 2.75 -0.234375 L 2.390625 -68.671875 L 17.703125 -69.03125 L 19.859375 -65.4375 L 22.84375 -68.3125 Z M 64.609375 -70.109375 "/></g></g></g><g fill="#ff7b2a" fill-opacity="1"><g transform="translate(291.167116, 200.752318)"><g><path d="M 65.078125 -24.765625 L 65.078125 -10.40625 L 58.984375 -0.71875 L 11.125 0 L 6.578125 -7.65625 L 7.0625 -51.328125 L 2.515625 -52.40625 L 2.390625 -66.515625 L 5.03125 -69.265625 L 8.5 -69.515625 L 9.8125 -86.734375 L 28.359375 -86.375 L 31.21875 -83.265625 L 31.109375 -69.515625 L 57.0625 -68.90625 L 60.0625 -64.71875 L 59.8125 -50.84375 L 56.703125 -48.578125 L 31.46875 -49.296875 L 30.390625 -19.375 L 41.75 -18.90625 L 44.5 -30.03125 L 62.09375 -28.953125 Z M 65.078125 -24.765625 "/></g></g></g><g fill="#f7d23e" fill-opacity="1"><g transform="translate(192.987325, 200.782326)"><g><path d="M 2.609375 -79.09375 L 24.359375 -79.796875 L 21.65625 -2 L 2 0.09375 Z M 2.609375 -79.09375 "/></g></g></g><g clip-path="url(#922bce372f)"><path fill="#509333" d="M 229.542969 79.925781 C 229.460938 79.925781 229.339844 79.925781 229.21875 79.925781 C 224.644531 80.457031 215.050781 82.578125 208.804688 89.4375 C 206.5625 85.804688 203.5 82.660156 200.191406 80.292969 C 200.191406 80.292969 190.964844 73.679688 185.742188 65.230469 C 185.25 64.414062 184.679688 64.003906 184.109375 64.003906 C 183.535156 64.003906 183.003906 64.414062 182.636719 65.269531 C 178.433594 74.90625 169.535156 105.195312 205.089844 116.136719 C 205.335938 116.21875 205.539062 116.257812 205.746094 116.257812 C 206.03125 116.257812 208.152344 116.257812 208.765625 116.257812 C 209.703125 116.257812 210.644531 116.175781 211.542969 116.011719 C 220.195312 114.460938 225.257812 105.480469 225.992188 97.398438 C 225.992188 97.398438 226.808594 88.703125 230.402344 81.964844 C 231.09375 80.78125 230.726562 79.925781 229.542969 79.925781 Z M 182.761719 97.070312 C 176.964844 84.457031 182.394531 70.046875 184.191406 65.921875 C 184.191406 65.882812 184.230469 65.839844 184.230469 65.839844 C 184.269531 65.882812 184.3125 65.964844 184.394531 66.046875 C 189.699219 74.699219 198.886719 81.3125 199.253906 81.597656 C 203.539062 84.703125 207.050781 88.90625 209.132812 93.480469 C 210.726562 96.988281 212.234375 102.417969 210.113281 108.214844 C 209.5 109.929688 208.601562 111.5625 207.539062 112.992188 C 207.132812 113.523438 206.398438 114.542969 205.824219 114.625 C 205.824219 111.808594 205.089844 108.871094 203.621094 106.175781 C 202.03125 103.195312 199.703125 100.582031 197.457031 98.011719 C 193.703125 93.722656 190.109375 89.722656 189.539062 83.96875 C 189.496094 83.761719 189.332031 83.558594 189.089844 83.601562 C 188.882812 83.640625 188.722656 83.804688 188.722656 84.046875 C 189.332031 90.050781 193.171875 94.378906 196.886719 98.542969 C 199.089844 101.03125 201.417969 103.601562 202.96875 106.542969 C 204.316406 109.074219 205.050781 111.808594 205.050781 114.421875 C 193.90625 110.871094 186.394531 105.03125 182.761719 97.070312 Z M 224.402344 97.234375 C 224.035156 101.152344 222.605469 105.15625 220.441406 108.214844 C 218.765625 110.582031 215.785156 113.605469 211.296875 114.421875 C 210.480469 114.585938 209.621094 114.625 208.804688 114.625 C 208.644531 114.625 208.519531 114.625 208.355469 114.625 C 208.519531 114.421875 208.722656 114.175781 208.847656 113.972656 C 208.847656 113.929688 208.886719 113.929688 208.886719 113.890625 C 210.070312 112.953125 211.09375 111.769531 211.949219 110.378906 C 213.214844 108.296875 213.992188 105.929688 214.726562 103.601562 C 215.949219 99.765625 217.132812 96.132812 220.398438 93.722656 C 220.5625 93.601562 220.605469 93.316406 220.480469 93.152344 C 220.359375 92.988281 220.074219 92.949219 219.910156 93.070312 C 216.441406 95.644531 215.175781 99.5625 213.949219 103.359375 C 213.214844 105.601562 212.480469 107.972656 211.253906 109.972656 C 211.175781 110.136719 211.050781 110.296875 210.96875 110.421875 C 211.214844 109.890625 211.460938 109.320312 211.664062 108.746094 C 213.867188 102.664062 212.683594 96.378906 209.703125 90.90625 C 215.625 84.089844 225.054688 82.128906 228.808594 81.640625 C 225.257812 88.5 224.441406 96.867188 224.402344 97.234375 Z M 224.402344 97.234375 " fill-opacity="1" fill-rule="nonzero"/></g><g fill="#509333" fill-opacity="1"><g transform="translate(55.697487, 203.869234)"><g><path d="M 75.765625 -94.609375 L 75.90625 -33.40625 L 70.4375 -27.03125 L 30.15625 -25.734375 L 28.984375 -1.8125 L 2.59375 0.390625 L 2.59375 -103.578125 L 70.703125 -99.6875 Z M 48.609375 -79.15625 L 31.453125 -80.84375 L 30.796875 -49.125 L 48.484375 -50.421875 Z M 48.609375 -79.15625 "/></g></g></g><g fill="#ff7b2a" fill-opacity="1"><g transform="translate(258.472669, 239.764331)"><g><path d="M 6.21875 -51.578125 L 54.671875 -52.3125 L 55.3125 -34.140625 L 6.03125 -32.890625 Z M 6.21875 -51.578125 "/></g></g></g><g fill="#f7d23e" fill-opacity="1"><g transform="translate(132.404264, 194.951868)"><g><path d="M 54.640625 -22.359375 L 49.421875 -21.75 L 56.4375 -7.421875 L 54.734375 -4.015625 L 39.296875 0 L 28.171875 -20.34375 L 23.265625 -20.15625 L 22.359375 -2 L 2 -0.296875 L 2 -80.40625 L 54.53125 -77.1875 L 58.453125 -73.28125 L 58.546875 -29.078125 Z M 37.390625 -39.203125 L 37.5 -61.65625 L 24.265625 -62.953125 L 23.765625 -38.1875 Z M 37.390625 -39.203125 "/></g></g></g><g fill="#063778" fill-opacity="1"><g transform="translate(100.454454, 248.558855)"><g><path d="M 54.875 -64.0625 L 55.59375 -0.15625 L 38.671875 -0.5625 L 37.390625 -36.984375 L 28.4375 -23.609375 L 20.0625 -36.5 L 18.78125 -0.8125 L 1.609375 -0.15625 L 2.5 -64.625 L 19.5 -64.375 L 28.4375 -49.875 L 37.0625 -64.296875 Z M 54.875 -64.0625 "/></g></g></g><g fill="#063778" fill-opacity="1"><g transform="translate(157.657278, 248.558855)"><g><path d="M 47.140625 -43.828125 L 47.703125 0 L 36.65625 0.078125 L 34.96875 -2.734375 L 33.125 0 L 7.65625 -0.234375 L 1.609375 -4.671875 L 3.0625 -25.625 L 7.734375 -28.84375 L 30.296875 -29.25 L 30.546875 -34.734375 L 19.09375 -35.53125 L 17.734375 -32.546875 L 2.984375 -33.515625 L 2.171875 -39.328125 L 6.359375 -46.40625 L 41.8125 -46.890625 Z M 30.859375 -12.5625 L 30.78125 -19.984375 L 18.78125 -19.828125 L 19.265625 -13.046875 Z M 30.859375 -12.5625 "/></g></g></g><g fill="#063778" fill-opacity="1"><g transform="translate(206.964518, 248.558855)"><g><path d="M 43.515625 -47.21875 L 46.734375 -44.078125 L 46.578125 -2.25 L 42.546875 -0.078125 L 29.890625 -0.328125 L 29.890625 -32.71875 L 18.609375 -32.390625 L 18.859375 -1.296875 L 1.859375 -0.15625 L 1.609375 -46.25 L 11.921875 -46.5 L 13.375 -44.078125 L 15.390625 -46.015625 Z M 43.515625 -47.21875 "/></g></g></g><g fill="#063778" fill-opacity="1"><g transform="translate(255.304947, 248.558855)"><g><path d="M 1.609375 -0.15625 L 2.015625 -47.140625 L 19.5 -47.140625 L 17.328125 -0.96875 Z M 15.15625 -48.75 L 6.359375 -48.59375 L 2.34375 -51.328125 L 2.734375 -64.375 L 17.96875 -64.375 L 19.984375 -62.203125 L 18.203125 -51.25 Z M 15.15625 -48.75 "/></g></g></g><g fill="#063778" fill-opacity="1"><g transform="translate(276.897005, 248.558855)"><g><path d="M 47.140625 -43.828125 L 47.703125 0 L 36.65625 0.078125 L 34.96875 -2.734375 L 33.125 0 L 7.65625 -0.234375 L 1.609375 -4.671875 L 3.0625 -25.625 L 7.734375 -28.84375 L 30.296875 -29.25 L 30.546875 -34.734375 L 19.09375 -35.53125 L 17.734375 -32.546875 L 2.984375 -33.515625 L 2.171875 -39.328125 L 6.359375 -46.40625 L 41.8125 -46.890625 Z M 30.859375 -12.5625 L 30.78125 -19.984375 L 18.78125 -19.828125 L 19.265625 -13.046875 Z M 30.859375 -12.5625 "/></g></g></g></svg>